<mxfile host="app.diagrams.net" modified="2020-10-06T00:00:16.420Z" agent="5.0 (Windows NT 10.0; WOW64) AppleWebKit/537.36 (KHTML, like Gecko) Chrome/85.0.4183.83 YaBrowser/20.9.0.928 Yowser/2.5 Safari/537.36" etag="HHBn0HXFULq3YWyQH6Zj" version="13.7.7" type="github">
  <diagram name="Page-1" id="42789a77-a242-8287-6e28-9cd8cfd52e62">
    <mxGraphModel dx="1650" dy="1810" grid="1" gridSize="10" guides="1" tooltips="1" connect="1" arrows="1" fold="1" page="1" pageScale="1" pageWidth="1100" pageHeight="850" background="#ffffff" math="0" shadow="0">
      <root>
        <mxCell id="0" />
        <mxCell id="1" parent="0" />
        <mxCell id="1ea317790d2ca983-12" style="edgeStyle=none;rounded=1;html=1;labelBackgroundColor=none;startArrow=none;startFill=0;startSize=5;endArrow=classicThin;endFill=1;endSize=5;jettySize=auto;orthogonalLoop=1;strokeColor=#B3B3B3;strokeWidth=1;fontFamily=Verdana;fontSize=12;exitX=0.5;exitY=1;exitDx=0;exitDy=0;" parent="1" source="IAoJX6UmmmI4NkkRGDTJ-8" target="1ea317790d2ca983-2" edge="1">
          <mxGeometry relative="1" as="geometry">
            <mxPoint x="495" y="150" as="sourcePoint" />
          </mxGeometry>
        </mxCell>
        <mxCell id="1ea317790d2ca983-13" value="relation" style="edgeStyle=none;rounded=1;html=1;labelBackgroundColor=none;startArrow=none;startFill=0;startSize=5;endArrow=classicThin;endFill=1;endSize=5;jettySize=auto;orthogonalLoop=1;strokeColor=#B3B3B3;strokeWidth=1;fontFamily=Verdana;fontSize=12;exitX=0.5;exitY=1;exitDx=0;exitDy=0;" parent="1" source="IAoJX6UmmmI4NkkRGDTJ-8" target="1ea317790d2ca983-9" edge="1">
          <mxGeometry x="1" y="-30" relative="1" as="geometry">
            <mxPoint x="418.06000800657876" y="142.56529893675042" as="sourcePoint" />
            <Array as="points" />
            <mxPoint x="-6" y="4" as="offset" />
          </mxGeometry>
        </mxCell>
        <mxCell id="1ea317790d2ca983-21" value="relation" style="edgeStyle=none;rounded=1;html=1;labelBackgroundColor=none;startArrow=none;startFill=0;startSize=5;endArrow=classicThin;endFill=1;endSize=5;jettySize=auto;orthogonalLoop=1;strokeColor=#B3B3B3;strokeWidth=1;fontFamily=Verdana;fontSize=12" parent="1" source="1ea317790d2ca983-2" target="1ea317790d2ca983-7" edge="1">
          <mxGeometry relative="1" as="geometry" />
        </mxCell>
        <mxCell id="1ea317790d2ca983-22" value="relation" style="edgeStyle=none;rounded=1;html=1;labelBackgroundColor=none;startArrow=none;startFill=0;startSize=5;endArrow=classicThin;endFill=1;endSize=5;jettySize=auto;orthogonalLoop=1;strokeColor=#B3B3B3;strokeWidth=1;fontFamily=Verdana;fontSize=12" parent="1" source="1ea317790d2ca983-2" target="1ea317790d2ca983-6" edge="1">
          <mxGeometry relative="1" as="geometry" />
        </mxCell>
        <mxCell id="1ea317790d2ca983-2" value="Да, я готов ввести свои данные" style="ellipse;whiteSpace=wrap;html=1;rounded=0;shadow=1;comic=0;labelBackgroundColor=none;strokeWidth=1;fontFamily=Verdana;fontSize=12;align=center;" parent="1" vertex="1">
          <mxGeometry x="430" y="130" width="137" height="50" as="geometry" />
        </mxCell>
        <mxCell id="IAoJX6UmmmI4NkkRGDTJ-56" style="edgeStyle=orthogonalEdgeStyle;rounded=0;orthogonalLoop=1;jettySize=auto;html=1;entryX=0.25;entryY=1;entryDx=0;entryDy=0;" edge="1" parent="1" source="1ea317790d2ca983-6" target="IAoJX6UmmmI4NkkRGDTJ-10">
          <mxGeometry relative="1" as="geometry">
            <Array as="points">
              <mxPoint x="660" y="25" />
            </Array>
          </mxGeometry>
        </mxCell>
        <mxCell id="1ea317790d2ca983-6" value="Авторизация" style="ellipse;whiteSpace=wrap;html=1;rounded=0;shadow=1;comic=0;labelBackgroundColor=none;strokeWidth=1;fontFamily=Verdana;fontSize=12;align=center;" parent="1" vertex="1">
          <mxGeometry x="520" y="-10" width="120" height="50" as="geometry" />
        </mxCell>
        <mxCell id="1ea317790d2ca983-7" value="Регистрация" style="ellipse;whiteSpace=wrap;html=1;rounded=0;shadow=1;comic=0;labelBackgroundColor=none;strokeWidth=1;fontFamily=Verdana;fontSize=12;align=center;" parent="1" vertex="1">
          <mxGeometry x="438.5" y="260" width="120" height="50" as="geometry" />
        </mxCell>
        <mxCell id="IAoJX6UmmmI4NkkRGDTJ-53" style="edgeStyle=orthogonalEdgeStyle;rounded=0;orthogonalLoop=1;jettySize=auto;html=1;exitX=0.5;exitY=1;exitDx=0;exitDy=0;entryX=0;entryY=0.5;entryDx=0;entryDy=0;" edge="1" parent="1" source="1ea317790d2ca983-9" target="IAoJX6UmmmI4NkkRGDTJ-15">
          <mxGeometry relative="1" as="geometry" />
        </mxCell>
        <mxCell id="IAoJX6UmmmI4NkkRGDTJ-57" style="edgeStyle=orthogonalEdgeStyle;rounded=0;orthogonalLoop=1;jettySize=auto;html=1;exitX=0.5;exitY=0;exitDx=0;exitDy=0;" edge="1" parent="1" source="1ea317790d2ca983-9">
          <mxGeometry relative="1" as="geometry">
            <mxPoint x="155" y="-310" as="targetPoint" />
          </mxGeometry>
        </mxCell>
        <mxCell id="1ea317790d2ca983-9" value="Нет, воспользуюсь анонимным поиском" style="ellipse;whiteSpace=wrap;html=1;rounded=0;shadow=1;comic=0;labelBackgroundColor=none;strokeWidth=1;fontFamily=Verdana;fontSize=12;align=center;" parent="1" vertex="1">
          <mxGeometry x="60" y="190" width="190" height="50" as="geometry" />
        </mxCell>
        <mxCell id="IAoJX6UmmmI4NkkRGDTJ-2" value="" style="edgeStyle=orthogonalEdgeStyle;rounded=0;orthogonalLoop=1;jettySize=auto;html=1;exitX=0.5;exitY=1;exitDx=0;exitDy=0;entryX=0.5;entryY=0;entryDx=0;entryDy=0;" edge="1" parent="1" source="IAoJX6UmmmI4NkkRGDTJ-6" target="IAoJX6UmmmI4NkkRGDTJ-5">
          <mxGeometry relative="1" as="geometry">
            <mxPoint x="495" y="10" as="sourcePoint" />
            <mxPoint x="495" y="70" as="targetPoint" />
          </mxGeometry>
        </mxCell>
        <mxCell id="IAoJX6UmmmI4NkkRGDTJ-9" style="edgeStyle=orthogonalEdgeStyle;rounded=0;orthogonalLoop=1;jettySize=auto;html=1;exitX=0.5;exitY=1;exitDx=0;exitDy=0;entryX=0.5;entryY=0;entryDx=0;entryDy=0;" edge="1" parent="1" source="IAoJX6UmmmI4NkkRGDTJ-5" target="IAoJX6UmmmI4NkkRGDTJ-8">
          <mxGeometry relative="1" as="geometry">
            <Array as="points">
              <mxPoint x="348" y="50" />
              <mxPoint x="288" y="50" />
            </Array>
          </mxGeometry>
        </mxCell>
        <mxCell id="IAoJX6UmmmI4NkkRGDTJ-5" value="Не мог бы ты ответить на пару вопросов?" style="rounded=1;whiteSpace=wrap;html=1;" vertex="1" parent="1">
          <mxGeometry x="242.5" y="-30" width="210" height="60" as="geometry" />
        </mxCell>
        <mxCell id="IAoJX6UmmmI4NkkRGDTJ-6" value="&lt;span style=&quot;font-family: &amp;#34;verdana&amp;#34;&quot;&gt;Привет! Я буду твоим помощником в поиске вакансий. Когда захочешь начать, напиши мне /start&lt;/span&gt;" style="rounded=1;whiteSpace=wrap;html=1;" vertex="1" parent="1">
          <mxGeometry x="237.5" y="-160" width="220" height="90" as="geometry" />
        </mxCell>
        <mxCell id="IAoJX6UmmmI4NkkRGDTJ-8" value="Продолжим со входом или регистрацией на HeadHunter?" style="rounded=1;whiteSpace=wrap;html=1;" vertex="1" parent="1">
          <mxGeometry x="215" y="80" width="145" height="70" as="geometry" />
        </mxCell>
        <mxCell id="IAoJX6UmmmI4NkkRGDTJ-21" style="edgeStyle=orthogonalEdgeStyle;rounded=0;orthogonalLoop=1;jettySize=auto;html=1;exitX=1;exitY=1;exitDx=0;exitDy=0;entryX=0;entryY=0;entryDx=0;entryDy=0;" edge="1" parent="1" source="IAoJX6UmmmI4NkkRGDTJ-10" target="IAoJX6UmmmI4NkkRGDTJ-20">
          <mxGeometry relative="1" as="geometry" />
        </mxCell>
        <mxCell id="IAoJX6UmmmI4NkkRGDTJ-23" style="edgeStyle=orthogonalEdgeStyle;rounded=0;orthogonalLoop=1;jettySize=auto;html=1;exitX=0.5;exitY=0;exitDx=0;exitDy=0;" edge="1" parent="1" source="IAoJX6UmmmI4NkkRGDTJ-10" target="IAoJX6UmmmI4NkkRGDTJ-22">
          <mxGeometry relative="1" as="geometry" />
        </mxCell>
        <mxCell id="IAoJX6UmmmI4NkkRGDTJ-51" style="edgeStyle=orthogonalEdgeStyle;rounded=0;orthogonalLoop=1;jettySize=auto;html=1;exitX=1;exitY=0.5;exitDx=0;exitDy=0;entryX=0;entryY=0.5;entryDx=0;entryDy=0;" edge="1" parent="1" source="IAoJX6UmmmI4NkkRGDTJ-10" target="IAoJX6UmmmI4NkkRGDTJ-16">
          <mxGeometry relative="1" as="geometry" />
        </mxCell>
        <mxCell id="IAoJX6UmmmI4NkkRGDTJ-52" style="edgeStyle=orthogonalEdgeStyle;rounded=0;orthogonalLoop=1;jettySize=auto;html=1;exitX=0.5;exitY=1;exitDx=0;exitDy=0;entryX=1;entryY=0.5;entryDx=0;entryDy=0;" edge="1" parent="1" source="IAoJX6UmmmI4NkkRGDTJ-10" target="IAoJX6UmmmI4NkkRGDTJ-15">
          <mxGeometry relative="1" as="geometry">
            <Array as="points">
              <mxPoint x="695" y="-85" />
              <mxPoint x="695" y="450" />
            </Array>
          </mxGeometry>
        </mxCell>
        <mxCell id="IAoJX6UmmmI4NkkRGDTJ-61" style="edgeStyle=orthogonalEdgeStyle;rounded=0;orthogonalLoop=1;jettySize=auto;html=1;exitX=0;exitY=0;exitDx=0;exitDy=0;entryX=1;entryY=0.5;entryDx=0;entryDy=0;" edge="1" parent="1" source="IAoJX6UmmmI4NkkRGDTJ-10" target="IAoJX6UmmmI4NkkRGDTJ-58">
          <mxGeometry relative="1" as="geometry">
            <Array as="points">
              <mxPoint x="660" y="-145" />
              <mxPoint x="660" y="-340" />
            </Array>
          </mxGeometry>
        </mxCell>
        <mxCell id="IAoJX6UmmmI4NkkRGDTJ-10" value="С возвращением, Александра!" style="rounded=1;whiteSpace=wrap;html=1;" vertex="1" parent="1">
          <mxGeometry x="630" y="-145" width="120" height="60" as="geometry" />
        </mxCell>
        <mxCell id="IAoJX6UmmmI4NkkRGDTJ-47" style="edgeStyle=orthogonalEdgeStyle;rounded=0;orthogonalLoop=1;jettySize=auto;html=1;exitX=0.5;exitY=1;exitDx=0;exitDy=0;entryX=0.5;entryY=0;entryDx=0;entryDy=0;" edge="1" parent="1" source="IAoJX6UmmmI4NkkRGDTJ-15" target="IAoJX6UmmmI4NkkRGDTJ-45">
          <mxGeometry relative="1" as="geometry" />
        </mxCell>
        <mxCell id="IAoJX6UmmmI4NkkRGDTJ-15" value="Поиск вакансий по предпочтениям" style="ellipse;whiteSpace=wrap;html=1;" vertex="1" parent="1">
          <mxGeometry x="505" y="420" width="170" height="60" as="geometry" />
        </mxCell>
        <mxCell id="IAoJX6UmmmI4NkkRGDTJ-16" value="Посмотреть мое резюме" style="ellipse;whiteSpace=wrap;html=1;" vertex="1" parent="1">
          <mxGeometry x="850" y="-110" width="160" height="60" as="geometry" />
        </mxCell>
        <mxCell id="IAoJX6UmmmI4NkkRGDTJ-38" style="edgeStyle=orthogonalEdgeStyle;rounded=0;orthogonalLoop=1;jettySize=auto;html=1;exitX=1;exitY=0.5;exitDx=0;exitDy=0;entryX=0;entryY=0.5;entryDx=0;entryDy=0;" edge="1" parent="1" source="IAoJX6UmmmI4NkkRGDTJ-20" target="IAoJX6UmmmI4NkkRGDTJ-36">
          <mxGeometry relative="1" as="geometry" />
        </mxCell>
        <mxCell id="IAoJX6UmmmI4NkkRGDTJ-20" value="Просмотренные мной вакансии" style="ellipse;whiteSpace=wrap;html=1;" vertex="1" parent="1">
          <mxGeometry x="810" y="-10" width="160" height="60" as="geometry" />
        </mxCell>
        <mxCell id="IAoJX6UmmmI4NkkRGDTJ-22" value="Просмотренные мной компании" style="ellipse;whiteSpace=wrap;html=1;" vertex="1" parent="1">
          <mxGeometry x="730" y="-260" width="150" height="60" as="geometry" />
        </mxCell>
        <mxCell id="IAoJX6UmmmI4NkkRGDTJ-30" style="edgeStyle=orthogonalEdgeStyle;rounded=0;orthogonalLoop=1;jettySize=auto;html=1;exitX=0.75;exitY=0;exitDx=0;exitDy=0;" edge="1" parent="1" source="IAoJX6UmmmI4NkkRGDTJ-25" target="IAoJX6UmmmI4NkkRGDTJ-29">
          <mxGeometry relative="1" as="geometry" />
        </mxCell>
        <mxCell id="IAoJX6UmmmI4NkkRGDTJ-25" value="Список компаний" style="shape=internalStorage;whiteSpace=wrap;html=1;backgroundOutline=1;fillColor=#dae8fc;strokeColor=#6c8ebf;" vertex="1" parent="1">
          <mxGeometry x="870" y="-330" width="150" height="50" as="geometry" />
        </mxCell>
        <mxCell id="IAoJX6UmmmI4NkkRGDTJ-27" value="" style="endArrow=classic;html=1;entryX=0;entryY=0.5;entryDx=0;entryDy=0;exitX=0.5;exitY=0;exitDx=0;exitDy=0;" edge="1" parent="1" source="IAoJX6UmmmI4NkkRGDTJ-22" target="IAoJX6UmmmI4NkkRGDTJ-25">
          <mxGeometry width="50" height="50" relative="1" as="geometry">
            <mxPoint x="780" y="-200" as="sourcePoint" />
            <mxPoint x="830" y="-250" as="targetPoint" />
          </mxGeometry>
        </mxCell>
        <mxCell id="IAoJX6UmmmI4NkkRGDTJ-32" style="edgeStyle=orthogonalEdgeStyle;rounded=0;orthogonalLoop=1;jettySize=auto;html=1;exitX=1;exitY=0.5;exitDx=0;exitDy=0;entryX=0.5;entryY=0;entryDx=0;entryDy=0;" edge="1" parent="1" source="IAoJX6UmmmI4NkkRGDTJ-29" target="IAoJX6UmmmI4NkkRGDTJ-33">
          <mxGeometry relative="1" as="geometry">
            <mxPoint x="1170" y="-145" as="targetPoint" />
            <Array as="points">
              <mxPoint x="1140" y="-355" />
              <mxPoint x="1140" y="-370" />
              <mxPoint x="1300" y="-370" />
            </Array>
          </mxGeometry>
        </mxCell>
        <mxCell id="IAoJX6UmmmI4NkkRGDTJ-29" value="Рассмотренные вакансии (ссылки)&lt;br&gt;Информация о компании" style="rounded=1;whiteSpace=wrap;html=1;" vertex="1" parent="1">
          <mxGeometry x="1080" y="-390" width="120" height="70" as="geometry" />
        </mxCell>
        <mxCell id="IAoJX6UmmmI4NkkRGDTJ-55" style="edgeStyle=orthogonalEdgeStyle;rounded=0;orthogonalLoop=1;jettySize=auto;html=1;exitX=0.5;exitY=1;exitDx=0;exitDy=0;entryX=0.5;entryY=0;entryDx=0;entryDy=0;" edge="1" parent="1" source="IAoJX6UmmmI4NkkRGDTJ-33" target="IAoJX6UmmmI4NkkRGDTJ-39">
          <mxGeometry relative="1" as="geometry" />
        </mxCell>
        <mxCell id="IAoJX6UmmmI4NkkRGDTJ-33" value="Краткое представление компании" style="shape=parallelogram;perimeter=parallelogramPerimeter;whiteSpace=wrap;html=1;fixedSize=1;fillColor=#dae8fc;strokeColor=#6c8ebf;" vertex="1" parent="1">
          <mxGeometry x="1240" y="-350" width="120" height="60" as="geometry" />
        </mxCell>
        <mxCell id="IAoJX6UmmmI4NkkRGDTJ-40" style="edgeStyle=orthogonalEdgeStyle;rounded=0;orthogonalLoop=1;jettySize=auto;html=1;exitX=1;exitY=0.5;exitDx=0;exitDy=0;entryX=1;entryY=0.5;entryDx=0;entryDy=0;" edge="1" parent="1" source="IAoJX6UmmmI4NkkRGDTJ-35" target="IAoJX6UmmmI4NkkRGDTJ-39">
          <mxGeometry relative="1" as="geometry">
            <Array as="points">
              <mxPoint x="1460" y="-180" />
            </Array>
          </mxGeometry>
        </mxCell>
        <mxCell id="IAoJX6UmmmI4NkkRGDTJ-35" value="Краткое представление вакансии" style="shape=parallelogram;perimeter=parallelogramPerimeter;whiteSpace=wrap;html=1;fixedSize=1;fillColor=#dae8fc;strokeColor=#6c8ebf;" vertex="1" parent="1">
          <mxGeometry x="1330" y="-10" width="120" height="60" as="geometry" />
        </mxCell>
        <mxCell id="IAoJX6UmmmI4NkkRGDTJ-37" style="edgeStyle=orthogonalEdgeStyle;rounded=0;orthogonalLoop=1;jettySize=auto;html=1;exitX=1;exitY=0.5;exitDx=0;exitDy=0;" edge="1" parent="1" source="IAoJX6UmmmI4NkkRGDTJ-36" target="IAoJX6UmmmI4NkkRGDTJ-35">
          <mxGeometry relative="1" as="geometry" />
        </mxCell>
        <mxCell id="IAoJX6UmmmI4NkkRGDTJ-36" value="Список вакансий (наименование, компания, дата)" style="shape=internalStorage;whiteSpace=wrap;html=1;backgroundOutline=1;fillColor=#dae8fc;strokeColor=#6c8ebf;" vertex="1" parent="1">
          <mxGeometry x="1010" y="-5" width="150" height="50" as="geometry" />
        </mxCell>
        <mxCell id="IAoJX6UmmmI4NkkRGDTJ-39" value="Проверка актуальности по желанию пользователя и обновление базы" style="ellipse;whiteSpace=wrap;html=1;aspect=fixed;fillColor=#ffe6cc;strokeColor=#d79b00;" vertex="1" parent="1">
          <mxGeometry x="1298" y="-245" width="130" height="130" as="geometry" />
        </mxCell>
        <mxCell id="IAoJX6UmmmI4NkkRGDTJ-42" value="" style="endArrow=classic;html=1;exitX=1;exitY=0;exitDx=0;exitDy=0;entryX=0.5;entryY=1;entryDx=0;entryDy=0;" edge="1" parent="1" source="IAoJX6UmmmI4NkkRGDTJ-16" target="IAoJX6UmmmI4NkkRGDTJ-43">
          <mxGeometry width="50" height="50" relative="1" as="geometry">
            <mxPoint x="1280" y="-40" as="sourcePoint" />
            <mxPoint x="1050" y="-160" as="targetPoint" />
          </mxGeometry>
        </mxCell>
        <mxCell id="IAoJX6UmmmI4NkkRGDTJ-44" style="edgeStyle=orthogonalEdgeStyle;rounded=0;orthogonalLoop=1;jettySize=auto;html=1;entryX=0;entryY=0;entryDx=0;entryDy=0;" edge="1" parent="1" source="IAoJX6UmmmI4NkkRGDTJ-43" target="IAoJX6UmmmI4NkkRGDTJ-39">
          <mxGeometry relative="1" as="geometry" />
        </mxCell>
        <mxCell id="IAoJX6UmmmI4NkkRGDTJ-43" value="Мои данные" style="shape=parallelogram;perimeter=parallelogramPerimeter;whiteSpace=wrap;html=1;fixedSize=1;fillColor=#dae8fc;strokeColor=#6c8ebf;" vertex="1" parent="1">
          <mxGeometry x="1010" y="-210" width="120" height="60" as="geometry" />
        </mxCell>
        <mxCell id="IAoJX6UmmmI4NkkRGDTJ-50" style="edgeStyle=orthogonalEdgeStyle;rounded=0;orthogonalLoop=1;jettySize=auto;html=1;entryX=0.417;entryY=0.997;entryDx=0;entryDy=0;entryPerimeter=0;" edge="1" parent="1" source="IAoJX6UmmmI4NkkRGDTJ-45" target="IAoJX6UmmmI4NkkRGDTJ-46">
          <mxGeometry relative="1" as="geometry">
            <Array as="points">
              <mxPoint x="1110" y="240" />
              <mxPoint x="1110" y="240" />
            </Array>
          </mxGeometry>
        </mxCell>
        <mxCell id="IAoJX6UmmmI4NkkRGDTJ-54" style="edgeStyle=orthogonalEdgeStyle;rounded=0;orthogonalLoop=1;jettySize=auto;html=1;exitX=1;exitY=0.75;exitDx=0;exitDy=0;" edge="1" parent="1" source="IAoJX6UmmmI4NkkRGDTJ-45">
          <mxGeometry relative="1" as="geometry">
            <mxPoint x="945" y="-330" as="targetPoint" />
            <Array as="points">
              <mxPoint x="1680" y="408" />
              <mxPoint x="1680" y="-440" />
              <mxPoint x="945" y="-440" />
            </Array>
          </mxGeometry>
        </mxCell>
        <mxCell id="IAoJX6UmmmI4NkkRGDTJ-45" value="Список вакансий (наименование, компания, дата)" style="shape=internalStorage;whiteSpace=wrap;html=1;backgroundOutline=1;fillColor=#ffe6cc;strokeColor=#d79b00;" vertex="1" parent="1">
          <mxGeometry x="980" y="370" width="150" height="50" as="geometry" />
        </mxCell>
        <mxCell id="IAoJX6UmmmI4NkkRGDTJ-46" value="Краткое представление вакансии" style="shape=parallelogram;perimeter=parallelogramPerimeter;whiteSpace=wrap;html=1;fixedSize=1;" vertex="1" parent="1">
          <mxGeometry x="1060" y="120" width="120" height="60" as="geometry" />
        </mxCell>
        <mxCell id="IAoJX6UmmmI4NkkRGDTJ-49" value="" style="endArrow=classic;html=1;entryX=0.649;entryY=1.013;entryDx=0;entryDy=0;entryPerimeter=0;exitX=0.394;exitY=0.006;exitDx=0;exitDy=0;exitPerimeter=0;" edge="1" parent="1" source="IAoJX6UmmmI4NkkRGDTJ-46" target="IAoJX6UmmmI4NkkRGDTJ-36">
          <mxGeometry width="50" height="50" relative="1" as="geometry">
            <mxPoint x="1020" y="20" as="sourcePoint" />
            <mxPoint x="1070" y="-30" as="targetPoint" />
            <Array as="points" />
          </mxGeometry>
        </mxCell>
        <mxCell id="IAoJX6UmmmI4NkkRGDTJ-60" style="edgeStyle=orthogonalEdgeStyle;rounded=0;orthogonalLoop=1;jettySize=auto;html=1;exitX=0.5;exitY=0;exitDx=0;exitDy=0;entryX=0.25;entryY=0;entryDx=0;entryDy=0;" edge="1" parent="1" source="IAoJX6UmmmI4NkkRGDTJ-58" target="IAoJX6UmmmI4NkkRGDTJ-25">
          <mxGeometry relative="1" as="geometry" />
        </mxCell>
        <mxCell id="IAoJX6UmmmI4NkkRGDTJ-58" value="Поиск компаний" style="rounded=1;whiteSpace=wrap;html=1;" vertex="1" parent="1">
          <mxGeometry x="95" y="-370" width="120" height="60" as="geometry" />
        </mxCell>
      </root>
    </mxGraphModel>
  </diagram>
</mxfile>
